# xmcd CD database file
#
# Track frame offsets:
#	150
#	14786
#	42026
#	54953
#	77112
#	99284
#	120516
#	143524
#	163834
#	182542
#	193911
#	218461
#	236629
#	257498
#	276500
#	298698
#
# Disc length: 4192 seconds
#
# Revision: 0
# Processed by: cddbd v1.4PL0 Copyright (c) Steve Scherf et al.
# Submitted via: CDex 1.51
#
DISCID=de105e10
DTITLE=Toño Rosario - merengue
DYEAR=1999
DGENRE=Merengue
TTITLE0=intro
TTITLE1=popurri
TTITLE2=mi hijo ha regresado
TTITLE3=sueltame
TTITLE4=en vivo
TTITLE5=volver a empesar
TTITLE6=hey
TTITLE7=estupida
TTITLE8=siempre estoy pensando en ella
TTITLE9=asi fue
TTITLE10=mal pelao
TTITLE11=estoy contento
TTITLE12=tu va vey
TTITLE13=su unico amor
TTITLE14=machucalo
TTITLE15=alegria
EXTD=YEAR: 1999
EXTT0=
EXTT1=
EXTT2=
EXTT3=
EXTT4=
EXTT5=
EXTT6=
EXTT7=
EXTT8=
EXTT9=
EXTT10=
EXTT11=
EXTT12=
EXTT13=
EXTT14=
EXTT15=
PLAYORDER=
